{"title":"Inland Empire 2006 DVDrip English Klam","uid":6552207,"size":2316793459,"categoryP":"video","categoryS":"movies","magnet":"?xt=urn:btih:9c73b3874685c119d7e762b390faadee546bc897&amp;dn=Inland+Empire+2006+DVDrip+English+Klam&amp;tr=udp%3A%2F%2Ftracker.openbittorrent.com%3A80&amp;tr=udp%3A%2F%2Fopen.demonii.com%3A1337&amp;tr=udp%3A%2F%2Ftracker.coppersurfer.tk%3A6969&amp;tr=udp%3A%2F%2Fexodus.desync.com%3A6969","seeders":0,"leechers":1,"uploader":"Klambake","files":-1,"time":1311151271,"description":"With: Laura Dern, Justin Theroux and Jeremy Irons\n\n'Inland Empire' vertelt het verhaal van een actrice (Laura Dern) en een acteur (Justin Theroux) die gecast zijn voor een film. Naarmate zij zich dieper storten op de film, die een remake met een duistere geschiedenis blijkt te zijn, beginnen zij zich als persoon te verwarren met de personages die zij spelen in de film.\n\nAs an actress starts to adopt the persona of her character in a film, her world starts to become nightmarish and surreal. \n\n------------------ Dutch Friends ------------------\nYou can find my Friends at: http://www.Film-Test.nl \n------ They got my dutchs subs ---- and more ------\n\nGeneral:\n\nComplete name                    : Inland Empire\\Inland Empire.avi\nFormat                           : AVI\nFormat/Info                      : Audio Video Interleave\nFile size                        : 2.16 GiB\nDuration                         : 2h 52mn\nOverall bit rate                 : 1 791 Kbps\n\nVideo:\n\nFormat                           : MPEG-4 Visual\nFormat profile                   : Simple@L3\nFormat settings, BVOP            : No\nFormat settings, QPel            : No\nFormat settings, GMC             : No warppoints\nFormat settings, Matrix          : Default (H.263)\nCodec ID                         : XVID\nCodec ID/Hint                    : XviD\nDuration                         : 2h 52mn\nBit rate                         : 1 333 Kbps\nWidth                            : 652 pixels\nHeight                           : 352 pixels\nDisplay aspect ratio             : 1.852\nFrame rate                       : 25.000 fps\nColor space                      : YUV\nChroma subsampling               : 4:2:0\nBit depth                        : 8 bits\nScan type                        : Progressive\nBits/(Pixel*Frame)               : 0.232\nStream size                      : 1.60 GiB (74%)\nWriting library                  : XviD 1.1.2 (UTC 2006-11-01)\n\nAudio:\n\nFormat                           : AC-3\nFormat/Info                      : Audio Coding 3\nMode extension                   : CM (complete main)\nCodec ID                         : 2000\nDuration                         : 2h 52mn\nBit rate mode                    : Constant\nBit rate                         : 448 Kbps\nChannel(s)                       : 6 channels\nChannel positions                : Front: L C R, Side: L R, LFE\nSampling rate                    : 48.0 KHz\nBit depth                        : 16 bits\nStream size                      : 552 MiB (25%)\nAlignment                        : Aligned on interleaves\nInterleave, duration             : 32 ms (0.80 video frame)\n\n\n","torrent":{"xt":"urn:btih:9c73b3874685c119d7e762b390faadee546bc897","amp;dn":"Inland+Empire+2006+DVDrip+English+Klam","amp;tr":["udp%3A%2F%2Ftracker.openbittorrent.com%3A80","udp%3A%2F%2Fopen.demonii.com%3A1337","udp%3A%2F%2Ftracker.coppersurfer.tk%3A6969","udp%3A%2F%2Fexodus.desync.com%3A6969"],"infoHash":"9c73b3874685c119d7e762b390faadee546bc897","infoHashBuffer":{"type":"Buffer","data":[156,115,179,135,70,133,193,25,215,231,98,179,144,250,173,238,84,107,200,151]},"announce":[],"urlList":[]}}